<?xml version="1.0" encoding="UTF-8" standalone="no"?>
<!-- Created with Inkscape (http://www.inkscape.org/) -->

<svg
   version="1.1"
   id="svg1"
   width="48.009155"
   height="57.389336"
   viewBox="0 0 48.009155 57.389336"
   xmlns="http://www.w3.org/2000/svg"
   xmlns:svg="http://www.w3.org/2000/svg">
  <defs
     id="defs1">
    <clipPath
       clipPathUnits="userSpaceOnUse"
       id="clipPath14">
      <path
         d="M 0,255.118 H 155.906 V 0 H 0 Z"
         transform="translate(-76.153002,-243.12231)"
         id="path14" />
    </clipPath>
    <clipPath
       clipPathUnits="userSpaceOnUse"
       id="clipPath16">
      <path
         d="M 0,255.118 H 155.906 V 0 H 0 Z"
         transform="translate(-86.499005,-226.44291)"
         id="path16" />
    </clipPath>
  </defs>
  <g
     id="layer-MC0"
     transform="translate(-306.69703,-14.980341)">
    <path
       id="path13"
       d="m 0,0 c 0,0 -0.696,1.711 -1.359,0 0,0 -1.577,-14.137 -2.924,-16.604 -1.699,-2.045 -3.336,-2.329 -11.253,-3.316 0,0 -3.102,-0.667 -0.385,-1.333 0,0 8.666,-0.513 10.845,-2.744 2.179,-2.23 3.524,-14.867 3.845,-16.997 0,0 0.641,-2.897 1.231,0 0.59,2.897 0.862,13.061 4.418,17.184 0,0 1.212,2.549 10.354,2.391 0,0 1.841,0.693 0.173,1.511 0,0 -7.238,0.031 -10.511,2.14 C 1.161,-15.66 0,0 0,0"
       style="fill:#f6eb2c;fill-opacity:1;fill-rule:nonzero;stroke:none"
       transform="matrix(1.3333333,0,0,-1.3333333,329.412,15.994267)"
       clip-path="url(#clipPath14)" />
    <path
       id="path15"
       d="m 0,0 c 0,0 -0.384,0.943 -0.749,0 0,0 -0.869,-7.794 -1.612,-9.154 -0.937,-1.128 -1.839,-1.284 -6.204,-1.828 0,0 -1.71,-0.368 -0.212,-0.735 0,0 4.777,-0.283 5.978,-1.513 1.202,-1.229 1.944,-8.196 2.121,-9.37 0,0 0.353,-1.598 0.678,0 0.325,1.597 0.475,7.2 2.436,9.473 0,0 0.668,1.405 5.708,1.319 0,0 1.015,0.381 0.095,0.832 0,0 -3.99,0.018 -5.795,1.18 C 0.64,-8.633 0,0 0,0"
       style="fill:#f6eb2c;fill-opacity:1;fill-rule:nonzero;stroke:none"
       transform="matrix(1.3333333,0,0,-1.3333333,343.20667,38.233467)"
       clip-path="url(#clipPath16)" />
  </g>
</svg>
